<svg width="119" height="55" viewBox="0 0 119 55" fill="none" xmlns="http://www.w3.org/2000/svg">
<path d="M46.3831 7.3127H3.69032C1.65221 7.3127 0 8.96216 0 10.9969L0 43.6287C0 45.6634 1.65221 47.3129 3.69031 47.3129H46.0129L43.234 44.5498H3.69031C3.18079 44.5498 2.76774 44.1374 2.76774 43.6287L2.76774 10.9969C2.76774 10.4882 3.18079 10.0758 3.69032 10.0758H43.6041L46.3831 7.3127Z" fill="black"/>
<path d="M70.5512 27.4571C70.5512 38.4894 65.582 48.3677 57.7478 55L55.3434 52.6093C62.5683 46.5945 67.163 37.5593 67.163 27.4571C67.163 17.4024 62.6114 8.40476 55.4452 2.38996L57.8488 0C65.6247 6.63155 70.5512 16.4723 70.5512 27.4571Z" fill="black"/>
<path d="M59.7454 27.4571C59.7454 35.5234 55.9659 42.712 50.0717 47.3677L47.665 44.9748C52.9558 40.9437 56.3675 34.5966 56.3675 27.4571C56.3675 20.3653 53.0012 14.0553 47.7708 10.0206L50.1758 7.62924C56.0104 12.2871 59.7454 19.4384 59.7454 27.4571Z" fill="black"/>
<path d="M49.9603 27.4571C49.9603 32.8398 47.2333 37.5892 43.0782 40.4141L40.6411 37.9909C44.2085 35.8248 46.5897 31.9175 46.5897 27.4572C46.5897 23.0452 44.2599 19.1744 40.7568 16.9945L43.189 14.5762C47.2818 17.4098 49.9603 22.1225 49.9603 27.4571Z" fill="black"/>
<path d="M30.0582 27.4569C30.0582 29.7233 31.906 31.5605 34.1853 31.5605C36.4647 31.5605 38.3125 29.7233 38.3125 27.4569C38.3125 25.1905 36.4647 23.3533 34.1853 23.3533C31.906 23.3533 30.0582 25.1905 30.0582 27.4569Z" fill="black"/>
<path d="M83.5048 9.9914L87.5022 21.2137L91.4781 9.9914H95.6892V25.4645H92.4721V21.2349L92.7928 13.9341L88.5923 25.4645H86.3906L82.2009 13.9447L82.5215 21.2349V25.4645H79.3151V9.9914H83.5048Z" fill="black"/>
<path d="M103.556 16.9628L106.794 9.9914H110.3L105.191 19.8534V25.4645H101.931V19.8534L96.8222 9.9914H100.339L103.556 16.9628Z" fill="black"/>
<path d="M115.9 20.0766H109.883V17.6004H115.9V20.0766Z" fill="black"/>
<path d="M91.9698 44.3996H88.7634L82.5215 34.2188V44.3996H79.3151V28.9264H82.5215L88.774 39.1285V28.9264H91.9698V44.3996Z" fill="black"/>
<path d="M104.133 38.0764H97.9765V44.3996H94.7701V28.9264H104.902V31.5088H97.9765V35.5046H104.133V38.0764Z" fill="black"/>
<path d="M118.979 39.2454C118.857 40.9103 118.238 42.221 117.119 43.1774C116.007 44.1339 114.539 44.6121 112.715 44.6121C110.72 44.6121 109.149 43.9461 108.002 42.6142C106.862 41.2752 106.292 39.4402 106.292 37.1093V36.1635C106.292 34.6757 106.555 33.365 107.083 32.2315C107.61 31.0979 108.362 30.23 109.338 29.6278C110.321 29.0185 111.461 28.7139 112.758 28.7139C114.554 28.7139 116 29.1921 117.098 30.1486C118.195 31.105 118.829 32.4476 119 34.1762H115.794C115.715 33.1773 115.434 32.4546 114.949 32.0083C114.472 31.5549 113.741 31.3282 112.758 31.3282C111.689 31.3282 110.888 31.7107 110.353 32.4759C109.826 33.234 109.555 34.4136 109.541 36.0147V37.1837C109.541 38.8557 109.794 40.0779 110.3 40.8501C110.813 41.6223 111.618 42.0085 112.715 42.0085C113.706 42.0085 114.443 41.7853 114.928 41.3389C115.419 40.8855 115.701 40.1877 115.772 39.2454H118.979Z" fill="black"/>
</svg>
