<svg xmlns="http://www.w3.org/2000/svg">

  <!-- Икнока телефона -->
  <symbol id="phone" viewBox="0 0 53 53">
    <circle cx="26.5" cy="26.5" r="26.5" fill="#6F55A6"/>
    <path d="M18.2125 8.13359C17.2 8.45703 16.3844 9.29375 16.0891 10.3133C15.9906 10.6578 15.9766 12.2398 15.9766 26.007C15.9766 40.8359 15.9836 41.3281 16.1102 41.743C16.4266 42.7695 17.2633 43.5852 18.2898 43.8875C18.6273 43.9859 19.5133 44 25.9258 44C32.3383 44 33.2242 43.9859 33.5617 43.8875C34.5883 43.5852 35.425 42.7695 35.7414 41.743C35.8609 41.3563 35.875 41.068 35.875 38.7055V36.0898L36.2828 35.8789C36.8453 35.5836 37.6258 34.7891 37.907 34.2195C38.1672 33.6922 38.2656 33.0523 38.1742 32.4758C38.0688 31.7445 37.8156 31.4141 36.0648 29.6703C34.5461 28.1656 34.4055 28.0461 34.0539 27.9406C33.5688 27.8 33.3297 27.8 32.8445 27.9406C32.5 28.0391 32.3594 28.1586 31.3047 29.2063C30.6648 29.8391 30.0883 30.3594 30.032 30.3594C29.7859 30.3594 28.8016 30.0641 28.4359 29.8883C27.1703 29.2695 26.2211 27.9898 26.0383 26.682L25.982 26.2461L27.093 25.1562C28.3727 23.9047 28.5203 23.6656 28.5133 22.9062C28.5063 22.1398 28.4219 22.0203 26.2914 19.9039C24.1891 17.8156 24.182 17.8086 23.3594 17.8156C22.7617 17.8297 22.4172 17.9984 21.7563 18.6383C20.9336 19.4398 20.3711 20.4383 20.0758 21.6125C19.9 22.3438 19.9141 23.9258 20.1109 24.8539C20.9688 28.8477 24.5266 33.2703 28.3656 35.1055C28.6469 35.2391 28.9703 35.3516 29.0898 35.3516C29.5117 35.3516 29.807 34.8664 29.6102 34.5148C29.5469 34.3953 29.2516 34.1984 28.7734 33.9523C26.0172 32.5461 23.4578 29.832 22.0586 26.8227C20.8773 24.2703 20.8211 22.0344 21.8969 20.368C22.2555 19.8125 23.0078 19.0672 23.268 19.018C23.3734 18.9969 23.5352 19.0109 23.6336 19.0531C23.8727 19.1375 27.1281 22.3789 27.2547 22.6602C27.4375 23.0469 27.3461 23.1875 26.1648 24.3617C25.4617 25.0578 24.9906 25.5781 24.8992 25.775C24.7586 26.0562 24.7516 26.1195 24.8289 26.7031C25.082 28.693 26.3547 30.3383 28.232 31.1188C28.8508 31.3789 29.6734 31.5547 30.2641 31.5547H30.707L31.9023 30.3313C32.6406 29.5719 33.168 29.0867 33.2875 29.0586C33.4 29.0305 33.5617 29.0516 33.7164 29.1289C34.0398 29.2766 36.7258 32.0117 36.8805 32.3422C37.1688 32.9539 36.9438 33.7133 36.2898 34.3461C35.4531 35.1547 34.293 35.3656 32.2188 35.0703C31.5578 34.9789 31.2414 35.1477 31.2344 35.6117C31.2344 36.0195 31.4594 36.1813 32.1836 36.2727C32.5352 36.3219 33.2383 36.3641 33.7445 36.3641L34.6797 36.3711V38.7969C34.6797 41.2016 34.6797 41.2227 34.5109 41.5812C34.3 42.0383 33.9133 42.425 33.4563 42.6359L33.0977 42.8047H25.9258H18.7539L18.3953 42.6359C17.9383 42.425 17.5516 42.0383 17.3406 41.5812L17.1719 41.2227V26V10.7773L17.3406 10.4188C17.5586 9.95469 17.9383 9.575 18.4305 9.34297L18.8242 9.16016H25.9258H33.0273L33.4211 9.34297C33.8781 9.56094 34.2578 9.91953 34.4828 10.3414C34.6375 10.6297 34.6445 10.7141 34.6797 12.9711L34.7148 15.2984L34.8836 15.4813C35.1086 15.7203 35.5023 15.7344 35.7203 15.5023C35.875 15.3406 35.875 15.3055 35.875 13.0133C35.875 10.925 35.8609 10.6367 35.7414 10.257C35.425 9.23047 34.5883 8.41484 33.5617 8.1125C33.2242 8.01406 32.3453 8 25.8977 8.00703C19.0352 8.00703 18.5922 8.01406 18.2125 8.13359Z" fill="white"/>
    <path d="M22.0235 10.8272C21.8407 11.0311 21.8336 11.467 22.0165 11.6498C22.0938 11.7272 22.2907 11.8045 22.4594 11.8326C22.6282 11.8537 24.3016 11.8678 26.186 11.8537L29.6032 11.8326L29.786 11.6639C30.0251 11.4389 30.0391 11.0451 29.8071 10.8272L29.6454 10.6725H25.9047H22.1711L22.0235 10.8272Z" fill="white"/>
    <path d="M30.2226 16.4586C29.9765 16.7047 29.9765 17.0773 30.2155 17.3164C30.3069 17.4148 30.4476 17.4922 30.5179 17.4922C30.7569 17.4922 31.7554 17.7734 32.4023 18.0195C34.6171 18.8773 36.8671 20.9586 37.9851 23.1805C38.3929 23.9961 38.7163 24.9734 38.8569 25.8102C38.9202 26.1547 39.1382 26.3516 39.4616 26.3516C39.6444 26.3516 39.764 26.3023 39.8835 26.1758C40.0312 26.0211 40.0382 25.9578 40.003 25.5289C39.9187 24.5656 39.3421 22.9977 38.646 21.8445C37.071 19.2359 34.4554 17.232 31.6921 16.5148C31.3827 16.4305 30.9679 16.3461 30.764 16.325C30.4405 16.2828 30.3843 16.2969 30.2226 16.4586Z" fill="white"/>
    <path d="M30.1797 19.8617C29.8281 19.9953 29.6875 20.382 29.8563 20.7125C29.9477 20.8953 30.0672 20.9586 30.6227 21.1414C32.7742 21.8586 34.5953 23.7008 35.3125 25.8805C35.3969 26.1547 35.5305 26.3937 35.6149 26.457C35.9172 26.668 36.3742 26.5344 36.5149 26.1969C36.6274 25.9156 36.4727 25.3461 36.0156 24.4109C35.2 22.7305 33.7938 21.3031 32.1133 20.4594C31.2766 20.0375 30.4188 19.7703 30.1797 19.8617Z" fill="white"/>
    <path d="M24.6595 40.6602C24.4696 40.85 24.4275 41.2156 24.5751 41.4055C24.7509 41.6375 24.9618 41.6797 25.9603 41.6797H26.9587L27.1696 41.4688C27.3525 41.2789 27.3806 41.2156 27.3454 40.9906C27.2681 40.5266 27.1486 40.4844 25.9111 40.4844C24.8564 40.4844 24.8212 40.4914 24.6595 40.6602Z" fill="white"/>
  </symbol>

    <!-- Икнока почты -->
  <symbol id="mail" viewBox="0 0 53 53">
    <circle cx="26.5" cy="26.5" r="26.5" fill="#6F55A6"/>
    <path d="M11.3789 14.7354C10.2988 15.084 9.46484 15.918 9.13672 16.9844C9 17.415 9 17.6406 9 26.5C9 35.332 9.00684 35.5918 9.13672 36.0088C9.46484 37.082 10.3125 37.9297 11.3789 38.2578C11.8027 38.3877 12.0283 38.3945 17.7842 38.3945H23.7451L23.9297 38.2168C24.1826 37.957 24.1826 37.4648 23.9297 37.2119L23.752 37.0342L17.9004 37.0137C13.2725 37 12.001 36.9727 11.8438 36.9043L11.6387 36.8154L16.2666 32.1875L20.8945 27.5596L23.5469 30.2119C26.0215 32.6865 26.2129 32.8574 26.4385 32.8574C26.5684 32.8574 26.7529 32.8096 26.8418 32.748C26.9375 32.6865 28.1611 31.4902 29.5625 30.0957L32.1055 27.5596L36.7334 32.1875L41.3613 36.8154L41.1562 36.9043C40.999 36.9727 39.7275 37 35.0996 37.0137L29.248 37.0342L29.0703 37.2119C28.8174 37.4648 28.8174 37.957 29.0703 38.2168L29.2549 38.3945H35.2158C40.9512 38.3945 41.1973 38.3877 41.6143 38.2578C42.6875 37.9297 43.5352 37.082 43.8633 36.0156C44 35.585 44 35.3594 44 26.5C44 17.6406 44 17.415 43.8633 16.9844C43.5352 15.918 42.6875 15.0703 41.6143 14.7422C41.1904 14.6055 40.9033 14.6055 26.4727 14.6123C12.4385 14.6123 11.748 14.6191 11.3789 14.7354ZM41.1562 16.0957L41.3613 16.1846L33.9102 23.6357L26.4658 31.0801L19.0352 23.6494C13.1973 17.8115 11.625 16.2051 11.707 16.1572C11.7686 16.123 11.96 16.0752 12.1309 16.041C12.3086 16.0137 18.8643 15.9932 26.7051 16C38.2373 16.0068 40.999 16.0205 41.1562 16.0957ZM15.207 31.1279L10.5791 35.7559L10.4902 35.5508C10.3604 35.2568 10.3604 17.7432 10.4902 17.4492L10.5791 17.2441L15.207 21.8721L19.835 26.5L15.207 31.1279ZM42.5713 17.8252C42.6123 18.0986 42.6328 21.4004 42.6191 26.8076C42.6055 33.6367 42.5781 35.3936 42.5098 35.5508L42.4209 35.7559L37.793 31.1279L33.165 26.5L37.7793 21.8857C40.3154 19.3496 42.4141 17.2988 42.4482 17.333C42.4756 17.3604 42.5303 17.5859 42.5713 17.8252Z" fill="white"/>
    <path d="M25.9941 37.2051C25.8506 37.3486 25.8164 37.4512 25.8164 37.7109C25.8164 38.1621 26.0488 38.3945 26.5 38.3945C26.9512 38.3945 27.1836 38.1621 27.1836 37.7109C27.1836 37.4512 27.1494 37.3486 27.0059 37.2051C26.8623 37.0615 26.7598 37.0273 26.5 37.0273C26.2402 37.0273 26.1377 37.0615 25.9941 37.2051Z" fill="white"/>
  </symbol>

      <!-- Икнока соц сетей -->
  <symbol id="social" viewBox="0 0 53 53">
    <circle cx="26.5" cy="26.5" r="26.5" fill="#6F55A6"/>
    <g clip-path="url(#clip0_1716_745)">
      <path d="M24.4142 9.07608C20.4562 9.5546 16.7511 11.3935 13.9552 14.2714C11.6446 16.6503 10.1065 19.5009 9.38193 22.748C8.88291 24.997 8.86924 27.8681 9.34775 30.1171C10.0792 33.5282 11.7335 36.5634 14.1739 38.9491C15.3019 40.0634 15.7667 40.4394 17.0382 41.2665C18.8976 42.4765 21.2149 43.3788 23.5665 43.8026C24.7491 44.0077 27.4425 44.0624 28.6866 43.9052C30.8058 43.6249 32.7608 43.0165 34.6134 42.0526C39.7062 39.4003 43.1446 34.4511 43.9034 28.6884C44.0606 27.4511 44.006 24.7577 43.794 23.5683C43.131 19.8427 41.4151 16.5751 38.7628 13.9843C37.7853 13.0341 37.1222 12.5009 36.0421 11.7899C34.1144 10.5321 31.8175 9.62979 29.4317 9.20596C28.7276 9.07608 28.2765 9.04874 26.7726 9.02823C25.7745 9.02139 24.7149 9.0419 24.4142 9.07608ZM25.9522 14.0253V17.8876H25.6173C24.2159 17.8876 21.5772 17.5253 19.6222 17.0605L19.2667 16.9784L19.5948 16.2401C20.7774 13.5741 22.3771 11.6327 24.1407 10.744C24.6603 10.4843 25.5626 10.1835 25.8702 10.1698C25.9317 10.163 25.9522 10.9765 25.9522 14.0253ZM28.003 10.3817C30.1632 11.0448 32.2481 13.3964 33.629 16.7323L33.7315 16.9784L32.7608 17.1972C31.0929 17.5663 29.5958 17.7714 27.921 17.8603L27.046 17.9081V14.0321V10.1562L27.3058 10.204C27.4425 10.2314 27.7569 10.3134 28.003 10.3817ZM21.4269 11.373C20.7433 12.0702 20.2237 12.7401 19.7042 13.581C19.3077 14.2167 18.631 15.5429 18.3644 16.1923C18.2755 16.411 18.1661 16.5888 18.1183 16.5888C17.8517 16.5888 16.2315 15.9189 15.1515 15.3651L14.7071 15.1327L15.1856 14.6952C16.9903 13.0341 18.9591 11.8173 21.0372 11.0858C21.502 10.9218 21.9122 10.7851 21.9532 10.7851C21.9874 10.7782 21.755 11.0448 21.4269 11.373ZM31.6876 10.9901C33.3966 11.5575 35.2901 12.5829 36.6642 13.6903C37.3409 14.244 38.2569 15.0985 38.2228 15.1532C38.1134 15.331 34.962 16.6913 34.8321 16.6161C34.8116 16.6024 34.7364 16.4452 34.6681 16.2675C34.4835 15.7685 33.7862 14.3876 33.3966 13.745C32.8839 12.8905 32.296 12.1317 31.6056 11.414C31.2706 11.0653 31.004 10.7782 31.0245 10.7782C31.0382 10.7782 31.339 10.8739 31.6876 10.9901ZM16.5597 17.2997C17.086 17.5116 17.5577 17.6825 17.5987 17.6825C17.756 17.6825 17.7423 17.8397 17.4757 18.7763C16.8946 20.8271 16.4503 23.7802 16.4503 25.5507V25.954H13.3058H10.1612V25.619C10.1612 25.1474 10.3458 23.8007 10.5099 23.0282C11.0089 20.745 12.171 18.2636 13.5929 16.4726L13.9278 16.0487L14.7618 16.4862C15.2198 16.7255 16.0265 17.0878 16.5597 17.2997ZM40.0274 17.3476C40.964 18.7353 41.5929 20.0204 42.0851 21.5585C42.4952 22.8437 42.837 24.7167 42.837 25.6806V25.954H39.6925H36.5479V25.5507C36.5479 23.7733 36.0899 20.8065 35.4952 18.6806C35.3517 18.1952 35.2696 17.7782 35.297 17.7509C35.3243 17.7235 35.5499 17.6347 35.796 17.5526C36.5343 17.2929 37.7784 16.746 38.4278 16.3837L39.0431 16.0487L39.2687 16.3017C39.3917 16.4384 39.7335 16.9101 40.0274 17.3476ZM19.3624 18.1884C20.545 18.537 22.7804 18.872 24.6397 18.995L25.9522 19.0771V22.5155V25.954H21.7823H17.6124V25.5507C17.6124 23.8485 18.0567 20.9022 18.6036 18.9813C18.7335 18.5233 18.8429 18.1405 18.8429 18.12C18.8429 18.0653 19.0206 18.0927 19.3624 18.1884ZM34.1554 18.12C34.1554 18.1405 34.2647 18.5302 34.3946 18.995C34.9073 20.7792 35.2765 23.0761 35.3653 24.9628L35.4063 25.954H31.2296H27.046V22.5155V19.0771L28.3653 18.995C30.2179 18.872 32.3233 18.5575 33.5743 18.2021C33.9298 18.0995 34.1554 18.0722 34.1554 18.12ZM16.4503 27.4511C16.4503 29.2147 16.9015 32.1747 17.4688 34.1981C17.6192 34.7245 17.7218 35.1689 17.6944 35.1894C17.6671 35.2099 17.2911 35.3603 16.8604 35.5175C16.4298 35.6815 15.5958 36.0439 15.0147 36.3378C14.4337 36.6249 13.9347 36.8642 13.9073 36.8778C13.839 36.912 12.9708 35.7226 12.506 34.9706C11.6515 33.5624 10.8995 31.703 10.544 30.1103C10.3526 29.2421 10.1612 27.8954 10.1612 27.3827V27.0478H13.3058H16.4503V27.4511ZM25.9522 30.4521V33.8564L24.7423 33.9384C23.1427 34.0409 21.6661 34.246 20.2784 34.5468C19.6563 34.6835 19.089 34.8065 19.0069 34.8202C18.877 34.8476 18.8429 34.7792 18.6515 34.1093C18.0909 32.1815 17.7491 30.1103 17.6397 27.9843L17.5919 27.0478H21.7755H25.9522V30.4521ZM35.3858 27.4169C35.3858 28.5243 35.1466 30.5751 34.8321 32.1269C34.6544 33.0224 34.1964 34.7519 34.1212 34.8271C34.1075 34.8407 33.7657 34.7792 33.3556 34.6835C31.6124 34.2733 30.17 34.0614 28.3312 33.9452L27.046 33.8564V30.4521V27.0478H31.2159H35.3858V27.4169ZM42.837 27.3212C42.837 27.4784 42.8028 27.8954 42.7618 28.2646C42.461 31.0878 41.3399 33.9452 39.6446 36.2216C39.3712 36.5907 39.1388 36.8915 39.1319 36.8915C39.1183 36.8915 38.6671 36.6659 38.1202 36.3925C37.5733 36.119 36.7325 35.7431 36.2403 35.5585C35.755 35.3739 35.3312 35.2099 35.3038 35.1894C35.2765 35.1689 35.379 34.7314 35.5226 34.2187C36.0968 32.1952 36.5479 29.2079 36.5479 27.4511V27.0478H39.6925H42.837V27.3212ZM25.9522 38.9423V42.8456L25.6993 42.7978C23.5597 42.4081 21.6114 40.6855 20.1144 37.8485C19.6563 36.9735 19.2394 36.0165 19.3077 35.9823C19.3351 35.9618 19.6974 35.873 20.1144 35.7704C21.1466 35.5243 22.671 35.2782 23.6964 35.1894C24.1681 35.1483 24.6603 35.1005 24.7901 35.0868C24.92 35.08 25.2345 35.0595 25.4942 35.0595L25.9522 35.0458V38.9423ZM29.6778 35.2235C30.9425 35.3603 33.0206 35.7499 33.6563 35.9687C33.7179 35.9892 33.6769 36.1532 33.5128 36.5292C31.9815 40.1044 29.753 42.3534 27.3058 42.7978L27.046 42.8456V38.9355V35.0253L27.8868 35.0731C28.3448 35.1005 29.1515 35.1689 29.6778 35.2235ZM18.4054 36.9257C19.1847 38.7851 20.1827 40.3437 21.3995 41.5878C21.7345 41.9364 21.9942 42.2235 21.9737 42.2235C21.9532 42.2235 21.5704 42.1005 21.1261 41.9433C19.0411 41.2323 16.963 39.9608 15.1925 38.3134L14.6524 37.8144L15.6026 37.3495C16.6212 36.8573 17.9269 36.3378 18.0841 36.3651C18.1388 36.372 18.2823 36.6249 18.4054 36.9257ZM35.6388 36.5839C36.0079 36.7206 36.7667 37.0487 37.3272 37.3222L38.3458 37.8144L37.8058 38.3134C36.5001 39.537 35.256 40.4052 33.711 41.164C32.9044 41.5605 31.2296 42.2235 31.0245 42.2235C31.004 42.2235 31.2638 41.9364 31.5987 41.5878C32.296 40.87 32.6788 40.3847 33.212 39.5575C33.8067 38.621 34.4083 37.4521 34.7774 36.495C34.8116 36.413 34.8663 36.3446 34.9005 36.3446C34.9415 36.3446 35.2696 36.454 35.6388 36.5839Z" fill="white"/>
    </g>
    <defs>
      <clipPath id="clip0_1716_745">
        <rect width="35" height="35" fill="white" transform="translate(9 9)"/>
      </clipPath>
    </defs>
  </symbol>

      <!-- Икнока адреса -->
  <symbol id="adress" viewBox="0 0 53 53">
    <circle cx="26.5" cy="26.5" r="26.5" fill="#6F55A6"/>
    <path d="M24.5508 9.13512C22.001 9.5863 19.8818 10.6937 18.1113 12.4916C15.8965 14.7406 14.7412 17.5707 14.7344 20.7357C14.7344 21.8295 14.7549 22.0892 14.9258 22.9779C15.2676 24.7689 15.7939 25.9857 17.0518 27.8519C17.4277 28.4056 19.5537 31.5638 21.7754 34.8724C24.0039 38.181 25.918 40.9701 26.0273 41.0726C26.3076 41.3392 26.6904 41.3392 26.9707 41.0795C27.0801 40.9701 28.9941 38.181 31.2227 34.8724C33.4443 31.5638 35.5703 28.4056 35.9463 27.8519C37.2041 25.9857 37.7305 24.7689 38.0723 22.9779C38.2432 22.0892 38.2637 21.8295 38.2637 20.7357C38.2568 17.5707 37.1016 14.7406 34.8867 12.4916C33.0752 10.6527 30.8672 9.51794 28.2627 9.10778C27.3398 8.95739 25.46 8.97106 24.5508 9.13512ZM28.0645 10.5365C30.2178 10.8851 32.0498 11.7943 33.6357 13.305C35.3105 14.8978 36.4316 17.0853 36.7598 19.3959C36.8623 20.1273 36.8076 22.0277 36.6641 22.7386C36.4453 23.7777 35.9805 25.0424 35.4883 25.8695C35.085 26.5599 26.5605 39.1791 26.499 39.1791C26.4512 39.1791 24.9336 36.9506 18.4258 27.2777C17.9404 26.5531 17.4004 25.6849 17.2363 25.35C16.874 24.6254 16.498 23.5316 16.3408 22.766C16.1904 22.0277 16.1357 20.141 16.2383 19.3959C16.6348 16.6341 18.1045 14.1459 20.3398 12.4779C21.7139 11.4593 23.1973 10.8236 24.8994 10.5365C25.6582 10.4134 27.2852 10.4134 28.0645 10.5365Z" fill="white"/>
    <path d="M25.9866 15.1921C25.385 15.2742 24.9065 15.3904 24.4622 15.5681C22.801 16.2244 21.5432 17.6804 21.1194 19.4441C20.9758 20.0525 20.9758 21.324 21.1194 21.9324C21.6184 23.9832 23.2043 25.5691 25.2551 26.0681C25.8635 26.2117 27.135 26.2117 27.7434 26.0681C29.7805 25.5759 31.4211 23.9421 31.8586 21.9666C32.0364 21.1941 32.0569 20.6541 31.9338 20.3943C31.7288 19.9636 31.1956 19.8474 30.8333 20.1619C30.676 20.2986 30.6418 20.408 30.5598 20.9753C30.4026 22.1306 30.0676 22.8484 29.3635 23.5525C28.0237 24.8855 26.0276 25.1384 24.4143 24.1677C23.9084 23.8669 23.3206 23.2791 23.0198 22.7732C22.0491 21.1599 22.302 19.1638 23.635 17.824C24.9543 16.5046 26.8616 16.2517 28.5295 17.1746C29.0422 17.4617 29.343 17.4753 29.637 17.2292C29.8967 17.0105 29.9719 16.6824 29.8215 16.3953C29.6438 16.0466 28.6252 15.5203 27.7708 15.3289C27.3196 15.2263 26.3147 15.1511 25.9866 15.1921Z" fill="white"/>
    <path d="M30.5879 17.7365C30.0547 17.798 29.8359 18.5432 30.2324 18.9396C30.7383 19.4455 31.5723 18.9807 31.4355 18.2629C31.374 17.9142 31.0117 17.6887 30.5879 17.7365Z" fill="white"/>
    <path d="M18.0352 42.6396C17.7891 42.7148 17.543 43.043 17.543 43.3027C17.543 43.5146 17.7207 43.8428 17.8779 43.9316C17.9668 43.9795 20.8174 44 26.5186 44H35.0225L35.2002 43.8291C35.6104 43.4121 35.3984 42.7217 34.8311 42.6055C34.4756 42.5371 18.2881 42.5713 18.0352 42.6396Z" fill="white"/>
  </symbol>

        <!-- Икнока стрелки -->
  <symbol id="arrow" viewBox="0 0 39 46">
    <g clip-path="url(#clip0_1842_65)">
      <path d="M32.5318 23.0004C32.5318 23.191 32.4561 23.3738 32.3213 23.5086C32.1865 23.6434 32.0037 23.7191 31.8131 23.7191H1.92385L13.6341 35.4294C13.7689 35.5642 13.8447 35.7472 13.8447 35.9379C13.8447 36.1286 13.7689 36.3115 13.6341 36.4464C13.4992 36.5813 13.3163 36.657 13.1256 36.657C12.9348 36.657 12.7519 36.5813 12.617 36.4464L-0.32045 23.5089C-0.387277 23.4422 -0.440291 23.3629 -0.476462 23.2756C-0.512632 23.1884 -0.53125 23.0949 -0.53125 23.0004C-0.53125 22.9059 -0.512632 22.8124 -0.476462 22.7252C-0.440291 22.6379 -0.387277 22.5586 -0.32045 22.4919L12.617 9.55438C12.6838 9.4876 12.7631 9.43463 12.8504 9.39849C12.9376 9.36235 13.0311 9.34375 13.1256 9.34375C13.22 9.34375 13.3135 9.36235 13.4008 9.39849C13.488 9.43463 13.5673 9.4876 13.6341 9.55438C13.7009 9.62116 13.7538 9.70044 13.79 9.78769C13.8261 9.87494 13.8447 9.96846 13.8447 10.0629C13.8447 10.1573 13.8261 10.2509 13.79 10.3381C13.7538 10.4254 13.7009 10.5046 13.6341 10.5714L1.92385 22.2816H31.8131C32.0037 22.2816 32.1865 22.3574 32.3213 22.4922C32.4561 22.627 32.5318 22.8098 32.5318 23.0004Z"/>
    </g>
    <defs>
      <clipPath id="clip0_1842_65">
        <rect width="39" height="46" fill="white"/>
      </clipPath>
    </defs>
  </symbol>

      <!-- Икнока крестика -->
  <symbol id="close" viewBox="0 0 38 38">
    <path d="M31.6666 31.6667L6.33325 6.33337M31.6666 6.33337L6.33325 31.6667" stroke="#6F55A6" stroke-width="3.16667" stroke-linecap="round"/>
  </symbol>

        <!-- Икнока копирования -->
  <symbol id="copy" viewBox="0 0 31 31">
    <path d="M10.3334 5.16668V20.6667C10.3334 21.3518 10.6055 22.0089 11.09 22.4934C11.5745 22.9778 12.2316 23.25 12.9167 23.25H23.25C23.9352 23.25 24.5923 22.9778 25.0767 22.4934C25.5612 22.0089 25.8334 21.3518 25.8334 20.6667V9.35426C25.8333 9.01011 25.7645 8.66943 25.631 8.35224C25.4975 8.03505 25.3019 7.74774 25.0558 7.50718L20.7739 3.31959C20.2913 2.84769 19.6432 2.58343 18.9682 2.58334H12.9167C12.2316 2.58334 11.5745 2.85552 11.09 3.33998C10.6055 3.82445 10.3334 4.48153 10.3334 5.16668Z"  stroke-width="2" stroke-linecap="round" stroke-linejoin="round"/>
    <path d="M20.6667 23.25V25.8334C20.6667 26.5185 20.3945 27.1756 19.91 27.66C19.4256 28.1445 18.7685 28.4167 18.0834 28.4167H7.75002C7.06488 28.4167 6.4078 28.1445 5.92333 27.66C5.43886 27.1756 5.16669 26.5185 5.16669 25.8334V11.625C5.16669 10.9399 5.43886 10.2828 5.92333 9.79833C6.4078 9.31386 7.06488 9.04169 7.75002 9.04169H10.3334" stroke-width="2" stroke-linecap="round" stroke-linejoin="round"/>
  </symbol>

          <!-- Икнока добавления записи -->
  <symbol id="add-input" viewBox="0 0 38 38">
    <rect width="38" height="38" rx="3" />
    <path d="M30.0156 19C30.0156 19.1865 29.9415 19.3653 29.8097 19.4972C29.6778 19.629 29.499 19.7031 29.3125 19.7031H19.7031V29.3125C19.7031 29.499 19.629 29.6778 19.4972 29.8097C19.3653 29.9415 19.1865 30.0156 19 30.0156C18.8135 30.0156 18.6347 29.9415 18.5028 29.8097C18.371 29.6778 18.2969 29.499 18.2969 29.3125V19.7031H8.6875C8.50102 19.7031 8.32218 19.629 8.19032 19.4972C8.05845 19.3653 7.98438 19.1865 7.98438 19C7.98438 18.8135 8.05845 18.6347 8.19032 18.5028C8.32218 18.371 8.50102 18.2969 8.6875 18.2969H18.2969V8.6875C18.2969 8.50102 18.371 8.32218 18.5028 8.19032C18.6347 8.05845 18.8135 7.98438 19 7.98438C19.1865 7.98438 19.3653 8.05845 19.4972 8.19032C19.629 8.32218 19.7031 8.50102 19.7031 8.6875V18.2969H29.3125C29.499 18.2969 29.6778 18.371 29.8097 18.5028C29.9415 18.6347 30.0156 18.8135 30.0156 19Z" fill="#FBFBFB"/>
  </symbol>


<!-- <svg class="icon-add-input">
        <use href="./assets/svg/sprite.svg#add-input"></use>
    </svg> -->

</svg>