<svg xmlns="http://www.w3.org/2000/svg">

  <!-- Логотип хедер -->
  <symbol id="phone" viewBox="0 0 53 53">
    <circle cx="26.5" cy="26.5" r="26.5" fill="#6F55A6"/>
    <path d="M18.2125 8.13359C17.2 8.45703 16.3844 9.29375 16.0891 10.3133C15.9906 10.6578 15.9766 12.2398 15.9766 26.007C15.9766 40.8359 15.9836 41.3281 16.1102 41.743C16.4266 42.7695 17.2633 43.5852 18.2898 43.8875C18.6273 43.9859 19.5133 44 25.9258 44C32.3383 44 33.2242 43.9859 33.5617 43.8875C34.5883 43.5852 35.425 42.7695 35.7414 41.743C35.8609 41.3563 35.875 41.068 35.875 38.7055V36.0898L36.2828 35.8789C36.8453 35.5836 37.6258 34.7891 37.907 34.2195C38.1672 33.6922 38.2656 33.0523 38.1742 32.4758C38.0688 31.7445 37.8156 31.4141 36.0648 29.6703C34.5461 28.1656 34.4055 28.0461 34.0539 27.9406C33.5688 27.8 33.3297 27.8 32.8445 27.9406C32.5 28.0391 32.3594 28.1586 31.3047 29.2063C30.6648 29.8391 30.0883 30.3594 30.032 30.3594C29.7859 30.3594 28.8016 30.0641 28.4359 29.8883C27.1703 29.2695 26.2211 27.9898 26.0383 26.682L25.982 26.2461L27.093 25.1562C28.3727 23.9047 28.5203 23.6656 28.5133 22.9062C28.5063 22.1398 28.4219 22.0203 26.2914 19.9039C24.1891 17.8156 24.182 17.8086 23.3594 17.8156C22.7617 17.8297 22.4172 17.9984 21.7563 18.6383C20.9336 19.4398 20.3711 20.4383 20.0758 21.6125C19.9 22.3438 19.9141 23.9258 20.1109 24.8539C20.9688 28.8477 24.5266 33.2703 28.3656 35.1055C28.6469 35.2391 28.9703 35.3516 29.0898 35.3516C29.5117 35.3516 29.807 34.8664 29.6102 34.5148C29.5469 34.3953 29.2516 34.1984 28.7734 33.9523C26.0172 32.5461 23.4578 29.832 22.0586 26.8227C20.8773 24.2703 20.8211 22.0344 21.8969 20.368C22.2555 19.8125 23.0078 19.0672 23.268 19.018C23.3734 18.9969 23.5352 19.0109 23.6336 19.0531C23.8727 19.1375 27.1281 22.3789 27.2547 22.6602C27.4375 23.0469 27.3461 23.1875 26.1648 24.3617C25.4617 25.0578 24.9906 25.5781 24.8992 25.775C24.7586 26.0562 24.7516 26.1195 24.8289 26.7031C25.082 28.693 26.3547 30.3383 28.232 31.1188C28.8508 31.3789 29.6734 31.5547 30.2641 31.5547H30.707L31.9023 30.3313C32.6406 29.5719 33.168 29.0867 33.2875 29.0586C33.4 29.0305 33.5617 29.0516 33.7164 29.1289C34.0398 29.2766 36.7258 32.0117 36.8805 32.3422C37.1688 32.9539 36.9438 33.7133 36.2898 34.3461C35.4531 35.1547 34.293 35.3656 32.2188 35.0703C31.5578 34.9789 31.2414 35.1477 31.2344 35.6117C31.2344 36.0195 31.4594 36.1813 32.1836 36.2727C32.5352 36.3219 33.2383 36.3641 33.7445 36.3641L34.6797 36.3711V38.7969C34.6797 41.2016 34.6797 41.2227 34.5109 41.5812C34.3 42.0383 33.9133 42.425 33.4563 42.6359L33.0977 42.8047H25.9258H18.7539L18.3953 42.6359C17.9383 42.425 17.5516 42.0383 17.3406 41.5812L17.1719 41.2227V26V10.7773L17.3406 10.4188C17.5586 9.95469 17.9383 9.575 18.4305 9.34297L18.8242 9.16016H25.9258H33.0273L33.4211 9.34297C33.8781 9.56094 34.2578 9.91953 34.4828 10.3414C34.6375 10.6297 34.6445 10.7141 34.6797 12.9711L34.7148 15.2984L34.8836 15.4813C35.1086 15.7203 35.5023 15.7344 35.7203 15.5023C35.875 15.3406 35.875 15.3055 35.875 13.0133C35.875 10.925 35.8609 10.6367 35.7414 10.257C35.425 9.23047 34.5883 8.41484 33.5617 8.1125C33.2242 8.01406 32.3453 8 25.8977 8.00703C19.0352 8.00703 18.5922 8.01406 18.2125 8.13359Z" fill="white"/>
    <path d="M22.0235 10.8272C21.8407 11.0311 21.8336 11.467 22.0165 11.6498C22.0938 11.7272 22.2907 11.8045 22.4594 11.8326C22.6282 11.8537 24.3016 11.8678 26.186 11.8537L29.6032 11.8326L29.786 11.6639C30.0251 11.4389 30.0391 11.0451 29.8071 10.8272L29.6454 10.6725H25.9047H22.1711L22.0235 10.8272Z" fill="white"/>
    <path d="M30.2226 16.4586C29.9765 16.7047 29.9765 17.0773 30.2155 17.3164C30.3069 17.4148 30.4476 17.4922 30.5179 17.4922C30.7569 17.4922 31.7554 17.7734 32.4023 18.0195C34.6171 18.8773 36.8671 20.9586 37.9851 23.1805C38.3929 23.9961 38.7163 24.9734 38.8569 25.8102C38.9202 26.1547 39.1382 26.3516 39.4616 26.3516C39.6444 26.3516 39.764 26.3023 39.8835 26.1758C40.0312 26.0211 40.0382 25.9578 40.003 25.5289C39.9187 24.5656 39.3421 22.9977 38.646 21.8445C37.071 19.2359 34.4554 17.232 31.6921 16.5148C31.3827 16.4305 30.9679 16.3461 30.764 16.325C30.4405 16.2828 30.3843 16.2969 30.2226 16.4586Z" fill="white"/>
    <path d="M30.1797 19.8617C29.8281 19.9953 29.6875 20.382 29.8563 20.7125C29.9477 20.8953 30.0672 20.9586 30.6227 21.1414C32.7742 21.8586 34.5953 23.7008 35.3125 25.8805C35.3969 26.1547 35.5305 26.3937 35.6149 26.457C35.9172 26.668 36.3742 26.5344 36.5149 26.1969C36.6274 25.9156 36.4727 25.3461 36.0156 24.4109C35.2 22.7305 33.7938 21.3031 32.1133 20.4594C31.2766 20.0375 30.4188 19.7703 30.1797 19.8617Z" fill="white"/>
    <path d="M24.6595 40.6602C24.4696 40.85 24.4275 41.2156 24.5751 41.4055C24.7509 41.6375 24.9618 41.6797 25.9603 41.6797H26.9587L27.1696 41.4688C27.3525 41.2789 27.3806 41.2156 27.3454 40.9906C27.2681 40.5266 27.1486 40.4844 25.9111 40.4844C24.8564 40.4844 24.8212 40.4914 24.6595 40.6602Z" fill="white"/>
  </symbol>

<!-- <svg class="personal-icon icon-phone">
        <use href="./assets/svg/sprite.svg#phone"></use>
    </svg> -->

</svg>